<?xml version="1.0" standalone="no"?>
<!DOCTYPE svg PUBLIC "-//W3C//DTD SVG 20010904//EN"
 "http://www.w3.org/TR/2001/REC-SVG-20010904/DTD/svg10.dtd">
<svg version="1.0" xmlns="http://www.w3.org/2000/svg"
 width="16.000000pt" height="16.000000pt" viewBox="0 0 16.000000 16.000000"
 preserveAspectRatio="xMidYMid meet">
<metadata>
Created by potrace 1.11, written by Peter Selinger 2001-2013
</metadata>
<g transform="translate(0.000000,16.000000) scale(0.003320,-0.003320)"
fill="#000000" stroke="none">
<path d="M457 4723 c-74 -352 -109 -524 -113 -548 -3 -16 -16 -79 -29 -140
-13 -60 -26 -121 -29 -135 -51 -254 -59 -294 -74 -358 l-10 -44 331 4 c312 4
336 6 401 27 39 13 92 35 118 49 105 57 209 175 267 304 25 55 34 81 58 173
13 49 12 282 -2 339 -32 135 -122 259 -222 306 -89 42 -143 49 -424 50 l-266
1 -6 -28z m550 -212 c90 -45 129 -148 120 -315 -7 -157 -59 -285 -153 -380
-54 -55 -102 -81 -171 -94 -64 -11 -293 -15 -293 -5 0 4 16 85 36 178 19 94
38 181 40 195 15 73 83 399 90 424 l7 28 141 -4 c118 -5 148 -9 183 -27z"/>
<path d="M2025 4418 c-47 -17 -109 -63 -150 -113 -41 -48 -51 -52 -37 -14 5
13 12 45 16 72 l7 47 -114 0 -114 0 -17 -77 c-9 -43 -19 -90 -21 -105 -6 -34
-12 -65 -20 -98 -3 -14 -7 -36 -10 -50 -3 -14 -18 -88 -34 -165 -46 -217 -81
-393 -81 -405 0 -16 240 -13 244 3 2 6 18 82 35 167 62 303 92 389 163 460 56
55 102 75 174 74 l60 -1 42 88 c23 48 42 92 42 97 0 28 -125 41 -185 20z"/>
<path d="M2072 3633 c-12 -60 -22 -114 -22 -120 0 -10 31 -13 119 -13 l119 0
15 73 c9 39 20 93 25 120 l10 47 -122 0 -122 0 -22 -107z"/>
<path d="M916 3028 c-3 -13 -12 -57 -21 -98 -9 -41 -23 -106 -31 -145 -7 -38
-16 -81 -19 -95 -2 -14 -23 -113 -45 -220 -72 -352 -99 -433 -151 -460 -10 -6
-45 -13 -77 -16 -101 -9 -152 34 -152 129 l0 48 -72 -7 c-40 -3 -93 -9 -118
-13 l-45 -6 -3 -58 c-7 -127 49 -222 160 -272 55 -25 77 -29 173 -32 124 -3
178 6 250 43 65 32 84 49 124 108 29 41 95 203 106 257 2 9 12 59 24 110 11
52 22 105 25 119 12 61 79 385 102 488 13 63 24 120 24 128 0 11 -24 14 -125
14 -121 0 -125 -1 -129 -22z"/>
<path d="M2486 3028 c-3 -13 -10 -45 -15 -73 -10 -47 -108 -527 -117 -570 -2
-11 -6 -31 -9 -45 -3 -14 -7 -34 -9 -45 -3 -11 -16 -76 -30 -145 -15 -69 -29
-138 -32 -155 -2 -16 -13 -67 -23 -112 l-18 -83 124 0 c67 0 123 2 123 5 0 3
11 57 25 121 14 64 27 130 30 147 33 192 78 329 127 387 84 100 214 128 261
56 15 -22 17 -109 4 -161 -3 -11 -17 -76 -32 -145 -15 -69 -28 -132 -30 -140
-39 -179 -55 -256 -55 -263 0 -4 55 -6 122 -5 l122 3 8 36 c4 20 9 47 12 60 2
13 28 132 57 264 74 336 73 416 -4 499 -39 42 -104 66 -178 66 -85 0 -157 -23
-236 -76 -66 -44 -68 -43 -53 21 5 22 11 54 14 70 3 17 19 92 35 168 l29 137
-124 0 c-120 0 -124 -1 -128 -22z"/>
<path d="M3643 2711 c-102 -29 -177 -89 -228 -182 l-25 -47 37 -6 c21 -3 76
-8 123 -11 l85 -6 17 30 c9 16 27 36 40 44 52 35 157 30 195 -9 17 -17 27
-101 16 -130 -7 -18 -89 -35 -248 -49 -248 -22 -356 -114 -356 -302 0 -167
123 -277 291 -260 65 7 148 42 198 83 31 26 32 26 32 5 0 -30 1 -34 11 -53 8
-16 26 -18 128 -18 l117 0 -11 58 c-18 85 -14 114 61 457 2 11 7 34 11 50 13
60 8 189 -9 220 -26 48 -68 86 -128 114 -48 22 -69 26 -175 28 -90 1 -136 -3
-182 -16z m202 -563 c-22 -88 -53 -131 -117 -162 -73 -35 -131 -31 -170 13
-51 57 -30 134 44 168 45 21 109 37 193 48 28 4 52 9 55 12 12 11 10 -21 -5
-79z"/>
<path d="M1377 2703 c-2 -5 -14 -51 -26 -103 -11 -52 -41 -185 -67 -295 -55
-244 -63 -314 -40 -382 34 -101 114 -149 238 -141 84 5 148 31 224 88 l51 38
-13 -54 -12 -54 117 0 118 0 57 258 c32 141 59 264 61 272 2 8 22 95 44 192
23 97 41 179 41 182 0 3 -56 6 -124 6 l-124 0 -18 -77 c-10 -43 -19 -84 -20
-92 -1 -7 -8 -36 -15 -65 -7 -28 -14 -53 -14 -56 -4 -19 -26 -119 -30 -135
-34 -151 -72 -225 -148 -288 -41 -35 -54 -40 -98 -41 -55 -1 -83 20 -95 71 -4
14 24 158 68 353 l74 330 -122 0 c-68 0 -125 -3 -127 -7z"/>
<path d="M432 1232 c-31 -152 -28 -139 -58 -277 -33 -154 -30 -140 -59 -285
-29 -146 -23 -114 -74 -360 -23 -107 -41 -198 -41 -202 0 -5 58 -8 129 -8
l129 0 6 27 c3 16 8 39 10 53 44 235 60 296 90 325 84 81 215 191 220 184 1
-2 24 -49 52 -104 28 -55 95 -187 149 -292 l97 -193 148 0 148 0 -79 146 c-43
80 -79 147 -79 149 0 1 -19 38 -43 81 -24 44 -65 120 -91 169 -27 50 -64 118
-83 153 -19 35 -33 65 -31 66 30 26 282 246 306 268 19 17 68 60 110 96 43 37
91 79 107 94 l30 28 -175 0 -175 0 -55 -53 c-67 -63 -254 -235 -284 -260 -23
-20 -104 -95 -180 -166 l-48 -46 6 30 c4 17 8 41 11 55 3 14 17 81 31 150 14
69 28 134 30 145 2 11 10 48 17 83 l14 62 -131 0 -131 0 -23 -118z"/>
<path d="M4325 1338 c-2 -7 -13 -55 -23 -105 l-20 -93 123 0 123 0 16 68 c8
37 18 84 21 105 l7 37 -121 0 c-88 0 -123 -3 -126 -12z"/>
<path d="M1813 1011 c-98 -28 -164 -79 -220 -170 -31 -49 -29 -66 5 -67 15 0
68 -4 117 -8 l90 -7 17 30 c23 42 62 64 120 67 87 4 138 -31 138 -95 0 -65 -8
-77 -58 -89 -46 -11 -71 -15 -202 -27 -80 -8 -172 -31 -219 -55 -88 -45 -137
-139 -132 -252 4 -85 16 -121 63 -173 93 -107 262 -113 400 -16 l56 39 7 -44
6 -44 124 0 123 0 -9 34 c-22 79 -15 155 36 386 59 271 57 334 -13 412 -20 23
-62 53 -92 66 -48 22 -71 26 -175 28 -91 2 -135 -2 -182 -15z m202 -563 c-23
-90 -56 -135 -119 -164 -40 -18 -64 -23 -97 -19 -96 11 -131 114 -63 183 18
18 118 51 174 58 25 3 61 9 80 13 19 4 36 4 38 0 2 -4 -4 -36 -13 -71z"/>
<path d="M2797 1019 c-101 -24 -184 -82 -239 -168 -36 -57 -36 -76 0 -77 15 0
68 -4 117 -8 l90 -7 17 30 c24 43 63 65 122 67 100 3 139 -31 132 -116 -3 -30
-5 -56 -6 -56 0 -2 -47 -14 -74 -20 -11 -2 -44 -6 -75 -9 -185 -17 -234 -26
-301 -56 -127 -56 -182 -200 -137 -354 17 -59 99 -138 159 -153 104 -26 200
-7 291 58 42 30 57 37 58 26 1 -9 3 -20 4 -26 1 -5 3 -19 4 -30 1 -19 8 -20
126 -20 l125 0 -11 28 c-11 29 -14 150 -5 192 3 14 9 41 12 60 3 19 12 60 19
90 8 30 16 69 18 85 3 17 10 53 17 80 18 77 22 171 10 216 -15 55 -79 122
-143 150 -43 19 -72 23 -172 25 -66 1 -137 -2 -158 -7z m178 -571 c-22 -86
-58 -136 -121 -165 -70 -32 -128 -26 -166 16 -51 57 -30 134 45 169 49 23 250
63 255 51 2 -5 -4 -36 -13 -71z"/>
<path d="M3941 1013 c-30 -11 -67 -38 -113 -85 -37 -38 -66 -63 -63 -56 2 7 6
24 9 38 2 14 7 42 11 63 l7 37 -116 0 c-64 0 -116 -3 -116 -7 0 -5 -20 -105
-45 -223 -24 -118 -65 -313 -90 -434 -25 -120 -45 -224 -45 -232 0 -11 24 -14
123 -14 112 0 123 2 124 18 3 44 85 407 104 465 33 99 73 153 148 203 39 25
53 29 111 28 l67 -2 45 97 46 96 -32 12 c-43 16 -123 14 -175 -4z"/>
<path d="M4255 998 c-2 -7 -11 -47 -19 -88 -9 -41 -27 -131 -42 -200 -14 -69
-27 -132 -29 -140 -11 -52 -57 -279 -61 -300 -3 -14 -10 -45 -16 -70 -5 -25
-12 -57 -15 -72 l-4 -28 125 0 c113 0 126 2 127 18 1 22 5 42 28 149 11 48 22
102 25 118 3 17 21 104 40 195 54 255 78 373 83 403 l4 27 -121 0 c-88 0 -122
-3 -125 -12z"/>
</g>
</svg>
